<svg id="Group_1104802" data-name="Group 1104802" xmlns="http://www.w3.org/2000/svg" xmlns:xlink="http://www.w3.org/1999/xlink" width="93.881" height="100.413" viewBox="0 0 93.881 100.413">
  <defs>
    <linearGradient id="linear-gradient" x1="0.867" y1="0.783" x2="0.027" y2="0.062" gradientUnits="objectBoundingBox">
      <stop offset="0" stop-color="#fff" stop-opacity="0.4"/>
      <stop offset="1" stop-color="#fff" stop-opacity="0"/>
    </linearGradient>
    <linearGradient id="linear-gradient-2" x1="0" y1="0.5" x2="1" y2="0.5" xlink:href="#linear-gradient"/>
  </defs>
  <path id="Path_1457069" data-name="Path 1457069" d="M336.708,326.038a14.632,14.632,0,0,0-6.588-11.417l-28.814-16.635c-3.625-2.093-6.588-.381-6.588,3.806v33.271a14.63,14.63,0,0,0,6.588,11.417l28.814,16.636c3.625,2.093,6.588.38,6.588-3.806Z" transform="translate(-294.718 -263.597)" fill="#62a4fb"/>
  <path id="Path_1457071" data-name="Path 1457071" d="M331.246,317.835,302.432,301.2a4.508,4.508,0,0,0-2.167-.689c-1.932,0-2.141,2.222-2.141,3.177v9.007c0-.955.209-3.177,2.141-3.177a4.509,4.509,0,0,1,2.167.689l28.814,16.635a13.1,13.1,0,0,1,5.83,10.1v-9.008A13.1,13.1,0,0,0,331.246,317.835Z" transform="translate(-296.608 -265.49)" fill="url(#linear-gradient)"/>
  <path id="Path_1457072" data-name="Path 1457072" d="M346.026,264.423a14.622,14.622,0,0,0,13.183,0l28.814-16.636c3.625-2.093,3.625-5.518,0-7.611L359.209,223.54a14.622,14.622,0,0,0-13.183,0l-28.814,16.635c-3.625,2.093-3.625,5.518,0,7.611Z" transform="translate(-305.679 -221.97)" fill="#3772ff"/>
  <path id="Path_1457074" data-name="Path 1457074" d="M319.861,248.364l2.6,1.5,25.964-14.99a13.129,13.129,0,0,1,11.661,0L386.3,250.01l2.849-1.647c1.245-.718,1.961-1.625,1.961-2.488s-.714-1.769-1.961-2.488l-28.814-16.635a13.124,13.124,0,0,0-11.661,0L319.861,243.39c-1.245.718-1.961,1.626-1.961,2.488S318.618,247.646,319.861,248.364Z" transform="translate(-307.569 -223.862)" fill="url(#linear-gradient-2)"/>
  <path id="Path_1457075" data-name="Path 1457075" d="M417.688,314.623a14.623,14.623,0,0,0-6.588,11.417v33.271c0,4.186,2.966,5.9,6.588,3.806L446.5,346.482a14.624,14.624,0,0,0,6.592-11.417V301.793c0-4.187-2.966-5.9-6.592-3.806Z" transform="translate(-359.213 -263.598)" fill="#0c061d"/>
  <path id="Path_1457077" data-name="Path 1457077" d="M451.323,300.508a4.506,4.506,0,0,0-2.167.689l-28.815,16.637a13.1,13.1,0,0,0-5.831,10.1v7.485a13.105,13.105,0,0,1,5.831-10.1l28.814-16.635a4.5,4.5,0,0,1,2.167-.689c1.932,0,2.14,2.222,2.14,3.177v-7.485C453.462,302.73,453.254,300.508,451.323,300.508Z" transform="translate(-361.103 -265.49)" fill="url(#linear-gradient-2)"/>
</svg>
